<?xml version="1.0" standalone="no"?>
 <!DOCTYPE svg PUBLIC "-//W3C//DTD SVG 1.1//EN" 
 "http://www.w3.org/Graphics/SVG/1.1/DTD/svg11.dtd"> 
<svg xmlns="http://www.w3.org/2000/svg" version="1.1" 
    width="29.7002cm" height="21.0007cm" viewBox="0 0 116930 82680 ">
<title>SVG Picture created as xcpld_demo_board-F.SilkS.svg date 2017/06/02 23:16:42 </title>
  <desc>Picture generated by PCBNEW </desc>
<g style="fill:#000000; fill-opacity:1;stroke:#000000; stroke-opacity:1;
stroke-linecap:round; stroke-linejoin:round; "
 transform="translate(0 0) scale(1 1)">
</g>
<g style="fill:#000000; fill-opacity:0.0; 
stroke:#000000; stroke-width:-0.000393701; stroke-opacity:1; 
stroke-linecap:round; stroke-linejoin:round;">
</g>
<g style="fill:#000000; fill-opacity:0.0; 
stroke:#000000; stroke-width:39.3701; stroke-opacity:1; 
stroke-linecap:round; stroke-linejoin:round;">
</g>
<g style="fill:#000000; fill-opacity:0.0; 
stroke:#000000; stroke-width:59.0551; stroke-opacity:1; 
stroke-linecap:round; stroke-linejoin:round;">
<rect x="69685.9" y="65357.2" width="42519.7" height="12598.4" rx="0" />
</g>
<g style="fill:#000000; fill-opacity:0.0; 
stroke:#000000; stroke-width:39.3701; stroke-opacity:1; 
stroke-linecap:round; stroke-linejoin:round;">
</g>
<g style="fill:#000000; fill-opacity:0.0; 
stroke:#000000; stroke-width:59.0551; stroke-opacity:1; 
stroke-linecap:round; stroke-linejoin:round;">
<rect x="3937.01" y="3937.01" width="109056" height="74806" rx="0" />
</g>
<g style="fill:#000000; fill-opacity:0.0; 
stroke:#000000; stroke-width:39.3701; stroke-opacity:1; 
stroke-linecap:round; stroke-linejoin:round;">
</g>
<g style="fill:#000000; fill-opacity:0.0; 
stroke:#000000; stroke-width:59.0551; stroke-opacity:1; 
stroke-linecap:round; stroke-linejoin:round;">
<rect x="4724.41" y="4724.41" width="107481" height="73231.2" rx="0" />
</g>
<g style="fill:#000000; fill-opacity:0.0; 
stroke:#000000; stroke-width:39.3701; stroke-opacity:1; 
stroke-linecap:round; stroke-linejoin:round;">
</g>
<g style="fill:#000000; fill-opacity:0.0; 
stroke:#000000; stroke-width:59.0551; stroke-opacity:1; 
stroke-linecap:round; stroke-linejoin:round;">
<path d="M23622 4724
L23622 3937
" />
</g>
<g style="fill:#000000; fill-opacity:0.0; 
stroke:#000000; stroke-width:39.3701; stroke-opacity:1; 
stroke-linecap:round; stroke-linejoin:round;">
</g>
<g style="fill:#000000; fill-opacity:0.0; 
stroke:#000000; stroke-width:59.0551; stroke-opacity:1; 
stroke-linecap:round; stroke-linejoin:round;">
<path d="M43307 4724
L43307 3937
" />
</g>
<g style="fill:#000000; fill-opacity:0.0; 
stroke:#000000; stroke-width:39.3701; stroke-opacity:1; 
stroke-linecap:round; stroke-linejoin:round;">
</g>
<g style="fill:#000000; fill-opacity:0.0; 
stroke:#000000; stroke-width:59.0551; stroke-opacity:1; 
stroke-linecap:round; stroke-linejoin:round;">
<path d="M62992 4724
L62992 3937
" />
</g>
<g style="fill:#000000; fill-opacity:0.0; 
stroke:#000000; stroke-width:39.3701; stroke-opacity:1; 
stroke-linecap:round; stroke-linejoin:round;">
</g>
<g style="fill:#000000; fill-opacity:0.0; 
stroke:#000000; stroke-width:59.0551; stroke-opacity:1; 
stroke-linecap:round; stroke-linejoin:round;">
<path d="M82677 4724
L82677 3937
" />
</g>
<g style="fill:#000000; fill-opacity:0.0; 
stroke:#000000; stroke-width:39.3701; stroke-opacity:1; 
stroke-linecap:round; stroke-linejoin:round;">
</g>
<g style="fill:#000000; fill-opacity:0.0; 
stroke:#000000; stroke-width:59.0551; stroke-opacity:1; 
stroke-linecap:round; stroke-linejoin:round;">
<path d="M102362 4724
L102362 3937
" />
</g>
<g style="fill:#000000; fill-opacity:0.0; 
stroke:#000000; stroke-width:39.3701; stroke-opacity:1; 
stroke-linecap:round; stroke-linejoin:round;">
</g>
<g style="fill:#000000; fill-opacity:0.0; 
stroke:#000000; stroke-width:59.0551; stroke-opacity:1; 
stroke-linecap:round; stroke-linejoin:round;">
<path d="M14169 4562
L13877 4562
" />
<path d="M14023 4562
L14023 4050
L13974 4123
L13925 4172
L13877 4196
" />
</g>
<g style="fill:#000000; fill-opacity:0.0; 
stroke:#000000; stroke-width:39.3701; stroke-opacity:1; 
stroke-linecap:round; stroke-linejoin:round;">
</g>
<g style="fill:#000000; fill-opacity:0.0; 
stroke:#000000; stroke-width:59.0551; stroke-opacity:1; 
stroke-linecap:round; stroke-linejoin:round;">
<path d="M33562 4099
L33586 4074
L33635 4050
L33757 4050
L33805 4074
L33830 4099
L33854 4147
L33854 4196
L33830 4269
L33537 4562
L33854 4562
" />
</g>
<g style="fill:#000000; fill-opacity:0.0; 
stroke:#000000; stroke-width:39.3701; stroke-opacity:1; 
stroke-linecap:round; stroke-linejoin:round;">
</g>
<g style="fill:#000000; fill-opacity:0.0; 
stroke:#000000; stroke-width:59.0551; stroke-opacity:1; 
stroke-linecap:round; stroke-linejoin:round;">
<path d="M53222 4050
L53539 4050
L53368 4245
L53442 4245
L53490 4269
L53515 4294
L53539 4342
L53539 4464
L53515 4513
L53490 4537
L53442 4562
L53295 4562
L53247 4537
L53222 4513
" />
</g>
<g style="fill:#000000; fill-opacity:0.0; 
stroke:#000000; stroke-width:39.3701; stroke-opacity:1; 
stroke-linecap:round; stroke-linejoin:round;">
</g>
<g style="fill:#000000; fill-opacity:0.0; 
stroke:#000000; stroke-width:59.0551; stroke-opacity:1; 
stroke-linecap:round; stroke-linejoin:round;">
<path d="M73175 4221
L73175 4562
" />
<path d="M73053 4026
L72932 4391
L73248 4391
" />
</g>
<g style="fill:#000000; fill-opacity:0.0; 
stroke:#000000; stroke-width:39.3701; stroke-opacity:1; 
stroke-linecap:round; stroke-linejoin:round;">
</g>
<g style="fill:#000000; fill-opacity:0.0; 
stroke:#000000; stroke-width:59.0551; stroke-opacity:1; 
stroke-linecap:round; stroke-linejoin:round;">
<path d="M92885 4050
L92641 4050
L92617 4294
L92641 4269
L92690 4245
L92812 4245
L92860 4269
L92885 4294
L92909 4342
L92909 4464
L92885 4513
L92860 4537
L92812 4562
L92690 4562
L92641 4537
L92617 4513
" />
</g>
<g style="fill:#000000; fill-opacity:0.0; 
stroke:#000000; stroke-width:39.3701; stroke-opacity:1; 
stroke-linecap:round; stroke-linejoin:round;">
</g>
<g style="fill:#000000; fill-opacity:0.0; 
stroke:#000000; stroke-width:59.0551; stroke-opacity:1; 
stroke-linecap:round; stroke-linejoin:round;">
<path d="M112545 4050
L112448 4050
L112399 4074
L112375 4099
L112326 4172
L112302 4269
L112302 4464
L112326 4513
L112350 4537
L112399 4562
L112497 4562
L112545 4537
L112570 4513
L112594 4464
L112594 4342
L112570 4294
L112545 4269
L112497 4245
L112399 4245
L112350 4269
L112326 4294
L112302 4342
" />
</g>
<g style="fill:#000000; fill-opacity:0.0; 
stroke:#000000; stroke-width:39.3701; stroke-opacity:1; 
stroke-linecap:round; stroke-linejoin:round;">
</g>
<g style="fill:#000000; fill-opacity:0.0; 
stroke:#000000; stroke-width:59.0551; stroke-opacity:1; 
stroke-linecap:round; stroke-linejoin:round;">
<path d="M23622 77955
L23622 78742
" />
</g>
<g style="fill:#000000; fill-opacity:0.0; 
stroke:#000000; stroke-width:39.3701; stroke-opacity:1; 
stroke-linecap:round; stroke-linejoin:round;">
</g>
<g style="fill:#000000; fill-opacity:0.0; 
stroke:#000000; stroke-width:59.0551; stroke-opacity:1; 
stroke-linecap:round; stroke-linejoin:round;">
<path d="M43307 77955
L43307 78742
" />
</g>
<g style="fill:#000000; fill-opacity:0.0; 
stroke:#000000; stroke-width:39.3701; stroke-opacity:1; 
stroke-linecap:round; stroke-linejoin:round;">
</g>
<g style="fill:#000000; fill-opacity:0.0; 
stroke:#000000; stroke-width:59.0551; stroke-opacity:1; 
stroke-linecap:round; stroke-linejoin:round;">
<path d="M62992 77955
L62992 78742
" />
</g>
<g style="fill:#000000; fill-opacity:0.0; 
stroke:#000000; stroke-width:39.3701; stroke-opacity:1; 
stroke-linecap:round; stroke-linejoin:round;">
</g>
<g style="fill:#000000; fill-opacity:0.0; 
stroke:#000000; stroke-width:59.0551; stroke-opacity:1; 
stroke-linecap:round; stroke-linejoin:round;">
<path d="M82677 77955
L82677 78742
" />
</g>
<g style="fill:#000000; fill-opacity:0.0; 
stroke:#000000; stroke-width:39.3701; stroke-opacity:1; 
stroke-linecap:round; stroke-linejoin:round;">
</g>
<g style="fill:#000000; fill-opacity:0.0; 
stroke:#000000; stroke-width:59.0551; stroke-opacity:1; 
stroke-linecap:round; stroke-linejoin:round;">
<path d="M102362 77955
L102362 78742
" />
</g>
<g style="fill:#000000; fill-opacity:0.0; 
stroke:#000000; stroke-width:39.3701; stroke-opacity:1; 
stroke-linecap:round; stroke-linejoin:round;">
</g>
<g style="fill:#000000; fill-opacity:0.0; 
stroke:#000000; stroke-width:59.0551; stroke-opacity:1; 
stroke-linecap:round; stroke-linejoin:round;">
<path d="M14169 78580
L13877 78580
" />
<path d="M14023 78580
L14023 78069
L13974 78142
L13925 78190
L13877 78215
" />
</g>
<g style="fill:#000000; fill-opacity:0.0; 
stroke:#000000; stroke-width:39.3701; stroke-opacity:1; 
stroke-linecap:round; stroke-linejoin:round;">
</g>
<g style="fill:#000000; fill-opacity:0.0; 
stroke:#000000; stroke-width:59.0551; stroke-opacity:1; 
stroke-linecap:round; stroke-linejoin:round;">
<path d="M33562 78117
L33586 78093
L33635 78069
L33757 78069
L33805 78093
L33830 78117
L33854 78166
L33854 78215
L33830 78288
L33537 78580
L33854 78580
" />
</g>
<g style="fill:#000000; fill-opacity:0.0; 
stroke:#000000; stroke-width:39.3701; stroke-opacity:1; 
stroke-linecap:round; stroke-linejoin:round;">
</g>
<g style="fill:#000000; fill-opacity:0.0; 
stroke:#000000; stroke-width:59.0551; stroke-opacity:1; 
stroke-linecap:round; stroke-linejoin:round;">
<path d="M53222 78069
L53539 78069
L53368 78263
L53442 78263
L53490 78288
L53515 78312
L53539 78361
L53539 78483
L53515 78532
L53490 78556
L53442 78580
L53295 78580
L53247 78556
L53222 78532
" />
</g>
<g style="fill:#000000; fill-opacity:0.0; 
stroke:#000000; stroke-width:39.3701; stroke-opacity:1; 
stroke-linecap:round; stroke-linejoin:round;">
</g>
<g style="fill:#000000; fill-opacity:0.0; 
stroke:#000000; stroke-width:59.0551; stroke-opacity:1; 
stroke-linecap:round; stroke-linejoin:round;">
<path d="M73175 78239
L73175 78580
" />
<path d="M73053 78044
L72932 78410
L73248 78410
" />
</g>
<g style="fill:#000000; fill-opacity:0.0; 
stroke:#000000; stroke-width:39.3701; stroke-opacity:1; 
stroke-linecap:round; stroke-linejoin:round;">
</g>
<g style="fill:#000000; fill-opacity:0.0; 
stroke:#000000; stroke-width:59.0551; stroke-opacity:1; 
stroke-linecap:round; stroke-linejoin:round;">
<path d="M92885 78069
L92641 78069
L92617 78312
L92641 78288
L92690 78263
L92812 78263
L92860 78288
L92885 78312
L92909 78361
L92909 78483
L92885 78532
L92860 78556
L92812 78580
L92690 78580
L92641 78556
L92617 78532
" />
</g>
<g style="fill:#000000; fill-opacity:0.0; 
stroke:#000000; stroke-width:39.3701; stroke-opacity:1; 
stroke-linecap:round; stroke-linejoin:round;">
</g>
<g style="fill:#000000; fill-opacity:0.0; 
stroke:#000000; stroke-width:59.0551; stroke-opacity:1; 
stroke-linecap:round; stroke-linejoin:round;">
<path d="M112545 78069
L112448 78069
L112399 78093
L112375 78117
L112326 78190
L112302 78288
L112302 78483
L112326 78532
L112350 78556
L112399 78580
L112497 78580
L112545 78556
L112570 78532
L112594 78483
L112594 78361
L112570 78312
L112545 78288
L112497 78263
L112399 78263
L112350 78288
L112326 78312
L112302 78361
" />
</g>
<g style="fill:#000000; fill-opacity:0.0; 
stroke:#000000; stroke-width:39.3701; stroke-opacity:1; 
stroke-linecap:round; stroke-linejoin:round;">
</g>
<g style="fill:#000000; fill-opacity:0.0; 
stroke:#000000; stroke-width:59.0551; stroke-opacity:1; 
stroke-linecap:round; stroke-linejoin:round;">
<path d="M3937 23622
L4724 23622
" />
</g>
<g style="fill:#000000; fill-opacity:0.0; 
stroke:#000000; stroke-width:39.3701; stroke-opacity:1; 
stroke-linecap:round; stroke-linejoin:round;">
</g>
<g style="fill:#000000; fill-opacity:0.0; 
stroke:#000000; stroke-width:59.0551; stroke-opacity:1; 
stroke-linecap:round; stroke-linejoin:round;">
<path d="M3937 43307
L4724 43307
" />
</g>
<g style="fill:#000000; fill-opacity:0.0; 
stroke:#000000; stroke-width:39.3701; stroke-opacity:1; 
stroke-linecap:round; stroke-linejoin:round;">
</g>
<g style="fill:#000000; fill-opacity:0.0; 
stroke:#000000; stroke-width:59.0551; stroke-opacity:1; 
stroke-linecap:round; stroke-linejoin:round;">
<path d="M3937 62992
L4724 62992
" />
</g>
<g style="fill:#000000; fill-opacity:0.0; 
stroke:#000000; stroke-width:39.3701; stroke-opacity:1; 
stroke-linecap:round; stroke-linejoin:round;">
</g>
<g style="fill:#000000; fill-opacity:0.0; 
stroke:#000000; stroke-width:59.0551; stroke-opacity:1; 
stroke-linecap:round; stroke-linejoin:round;">
<path d="M4208 13864
L4452 13864
" />
<path d="M4160 14011
L4330 13499
L4501 14011
" />
</g>
<g style="fill:#000000; fill-opacity:0.0; 
stroke:#000000; stroke-width:39.3701; stroke-opacity:1; 
stroke-linecap:round; stroke-linejoin:round;">
</g>
<g style="fill:#000000; fill-opacity:0.0; 
stroke:#000000; stroke-width:59.0551; stroke-opacity:1; 
stroke-linecap:round; stroke-linejoin:round;">
<path d="M4367 33428
L4440 33452
L4464 33476
L4489 33525
L4489 33598
L4464 33647
L4440 33671
L4391 33696
L4196 33696
L4196 33184
L4367 33184
L4416 33208
L4440 33233
L4464 33281
L4464 33330
L4440 33379
L4416 33403
L4367 33428
L4196 33428
" />
</g>
<g style="fill:#000000; fill-opacity:0.0; 
stroke:#000000; stroke-width:39.3701; stroke-opacity:1; 
stroke-linecap:round; stroke-linejoin:round;">
</g>
<g style="fill:#000000; fill-opacity:0.0; 
stroke:#000000; stroke-width:59.0551; stroke-opacity:1; 
stroke-linecap:round; stroke-linejoin:round;">
<path d="M4489 53332
L4464 53356
L4391 53381
L4342 53381
L4269 53356
L4221 53308
L4196 53259
L4172 53161
L4172 53088
L4196 52991
L4221 52942
L4269 52893
L4342 52869
L4391 52869
L4464 52893
L4489 52918
" />
</g>
<g style="fill:#000000; fill-opacity:0.0; 
stroke:#000000; stroke-width:39.3701; stroke-opacity:1; 
stroke-linecap:round; stroke-linejoin:round;">
</g>
<g style="fill:#000000; fill-opacity:0.0; 
stroke:#000000; stroke-width:59.0551; stroke-opacity:1; 
stroke-linecap:round; stroke-linejoin:round;">
<path d="M4196 73066
L4196 72554
L4318 72554
L4391 72578
L4440 72627
L4464 72676
L4489 72773
L4489 72846
L4464 72944
L4440 72993
L4391 73041
L4318 73066
L4196 73066
" />
</g>
<g style="fill:#000000; fill-opacity:0.0; 
stroke:#000000; stroke-width:39.3701; stroke-opacity:1; 
stroke-linecap:round; stroke-linejoin:round;">
</g>
<g style="fill:#000000; fill-opacity:0.0; 
stroke:#000000; stroke-width:59.0551; stroke-opacity:1; 
stroke-linecap:round; stroke-linejoin:round;">
<path d="M112992 23622
L112205 23622
" />
</g>
<g style="fill:#000000; fill-opacity:0.0; 
stroke:#000000; stroke-width:39.3701; stroke-opacity:1; 
stroke-linecap:round; stroke-linejoin:round;">
</g>
<g style="fill:#000000; fill-opacity:0.0; 
stroke:#000000; stroke-width:59.0551; stroke-opacity:1; 
stroke-linecap:round; stroke-linejoin:round;">
<path d="M112992 43307
L112205 43307
" />
</g>
<g style="fill:#000000; fill-opacity:0.0; 
stroke:#000000; stroke-width:39.3701; stroke-opacity:1; 
stroke-linecap:round; stroke-linejoin:round;">
</g>
<g style="fill:#000000; fill-opacity:0.0; 
stroke:#000000; stroke-width:59.0551; stroke-opacity:1; 
stroke-linecap:round; stroke-linejoin:round;">
<path d="M112992 62992
L112205 62992
" />
</g>
<g style="fill:#000000; fill-opacity:0.0; 
stroke:#000000; stroke-width:39.3701; stroke-opacity:1; 
stroke-linecap:round; stroke-linejoin:round;">
</g>
<g style="fill:#000000; fill-opacity:0.0; 
stroke:#000000; stroke-width:59.0551; stroke-opacity:1; 
stroke-linecap:round; stroke-linejoin:round;">
<path d="M112477 13864
L112721 13864
" />
<path d="M112428 14011
L112599 13499
L112769 14011
" />
</g>
<g style="fill:#000000; fill-opacity:0.0; 
stroke:#000000; stroke-width:39.3701; stroke-opacity:1; 
stroke-linecap:round; stroke-linejoin:round;">
</g>
<g style="fill:#000000; fill-opacity:0.0; 
stroke:#000000; stroke-width:59.0551; stroke-opacity:1; 
stroke-linecap:round; stroke-linejoin:round;">
<path d="M112635 33428
L112708 33452
L112733 33476
L112757 33525
L112757 33598
L112733 33647
L112708 33671
L112660 33696
L112465 33696
L112465 33184
L112635 33184
L112684 33208
L112708 33233
L112733 33281
L112733 33330
L112708 33379
L112684 33403
L112635 33428
L112465 33428
" />
</g>
<g style="fill:#000000; fill-opacity:0.0; 
stroke:#000000; stroke-width:39.3701; stroke-opacity:1; 
stroke-linecap:round; stroke-linejoin:round;">
</g>
<g style="fill:#000000; fill-opacity:0.0; 
stroke:#000000; stroke-width:59.0551; stroke-opacity:1; 
stroke-linecap:round; stroke-linejoin:round;">
<path d="M112757 53332
L112733 53356
L112660 53381
L112611 53381
L112538 53356
L112489 53308
L112465 53259
L112440 53161
L112440 53088
L112465 52991
L112489 52942
L112538 52893
L112611 52869
L112660 52869
L112733 52893
L112757 52918
" />
</g>
<g style="fill:#000000; fill-opacity:0.0; 
stroke:#000000; stroke-width:39.3701; stroke-opacity:1; 
stroke-linecap:round; stroke-linejoin:round;">
</g>
<g style="fill:#000000; fill-opacity:0.0; 
stroke:#000000; stroke-width:59.0551; stroke-opacity:1; 
stroke-linecap:round; stroke-linejoin:round;">
<path d="M112465 73066
L112465 72554
L112587 72554
L112660 72578
L112708 72627
L112733 72676
L112757 72773
L112757 72846
L112733 72944
L112708 72993
L112660 73041
L112587 73066
L112465 73066
" />
</g>
<g style="fill:#000000; fill-opacity:0.0; 
stroke:#000000; stroke-width:39.3701; stroke-opacity:1; 
stroke-linecap:round; stroke-linejoin:round;">
</g>
<g style="fill:#000000; fill-opacity:0.0; 
stroke:#000000; stroke-width:59.0551; stroke-opacity:1; 
stroke-linecap:round; stroke-linejoin:round;">
<path d="M78881 76293
L78881 75703
L79022 75703
L79106 75731
L79162 75787
L79190 75843
L79219 75956
L79219 76040
L79190 76153
L79162 76209
L79106 76265
L79022 76293
L78881 76293
" />
<path d="M79725 76293
L79725 75984
L79697 75928
L79640 75899
L79528 75899
L79472 75928
" />
<path d="M79725 76265
L79669 76293
L79528 76293
L79472 76265
L79444 76209
L79444 76153
L79472 76096
L79528 76068
L79669 76068
L79725 76040
" />
<path d="M79922 75899
L80147 75899
" />
<path d="M80006 75703
L80006 76209
L80034 76265
L80090 76293
L80147 76293
" />
<path d="M80568 76265
L80512 76293
L80400 76293
L80343 76265
L80315 76209
L80315 75984
L80343 75928
L80400 75899
L80512 75899
L80568 75928
L80597 75984
L80597 76040
L80315 76096
" />
<path d="M80850 76237
L80878 76265
L80850 76293
L80822 76265
L80850 76237
L80850 76293
" />
<path d="M80850 75928
L80878 75956
L80850 75984
L80822 75956
L80850 75928
L80850 75984
" />
</g>
<g style="fill:#000000; fill-opacity:0.0; 
stroke:#000000; stroke-width:39.3701; stroke-opacity:1; 
stroke-linecap:round; stroke-linejoin:round;">
</g>
<g style="fill:#000000; fill-opacity:0.0; 
stroke:#000000; stroke-width:59.0551; stroke-opacity:1; 
stroke-linecap:round; stroke-linejoin:round;">
<path d="M69685 76577
L112205 76577
" />
</g>
<g style="fill:#000000; fill-opacity:0.0; 
stroke:#000000; stroke-width:39.3701; stroke-opacity:1; 
stroke-linecap:round; stroke-linejoin:round;">
</g>
<g style="fill:#000000; fill-opacity:0.0; 
stroke:#000000; stroke-width:59.0551; stroke-opacity:1; 
stroke-linecap:round; stroke-linejoin:round;">
<path d="M70220 77395
L70220 76805
" />
<path d="M70557 77395
L70304 77058
" />
<path d="M70557 76805
L70220 77142
" />
<path d="M70810 77395
L70810 77002
" />
<path d="M70810 76805
L70782 76833
L70810 76861
L70838 76833
L70810 76805
L70810 76861
" />
<path d="M71429 77339
L71401 77367
L71316 77395
L71260 77395
L71176 77367
L71120 77311
L71091 77255
L71063 77142
L71063 77058
L71091 76946
L71120 76889
L71176 76833
L71260 76805
L71316 76805
L71401 76833
L71429 76861
" />
<path d="M71935 77395
L71935 77086
L71907 77030
L71851 77002
L71738 77002
L71682 77030
" />
<path d="M71935 77367
L71879 77395
L71738 77395
L71682 77367
L71654 77311
L71654 77255
L71682 77199
L71738 77171
L71879 77171
L71935 77142
" />
<path d="M72469 77395
L72469 76805
" />
<path d="M72469 77367
L72413 77395
L72301 77395
L72244 77367
L72216 77339
L72188 77283
L72188 77114
L72216 77058
L72244 77030
L72301 77002
L72413 77002
L72469 77030
" />
<path d="M73201 77086
L73397 77086
" />
<path d="M73482 77395
L73201 77395
L73201 76805
L73482 76805
" />
<path d="M73735 77339
L73763 77367
L73735 77395
L73707 77367
L73735 77339
L73735 77395
" />
<path d="M74016 77395
L74016 76805
L74157 76805
L74241 76833
L74297 76889
L74325 76946
L74354 77058
L74354 77142
L74325 77255
L74297 77311
L74241 77367
L74157 77395
L74016 77395
" />
<path d="M74607 77339
L74635 77367
L74607 77395
L74579 77367
L74607 77339
L74607 77395
" />
<path d="M74860 77227
L75141 77227
" />
<path d="M74804 77395
L75000 76805
L75197 77395
" />
<path d="M75394 77339
L75422 77367
L75394 77395
L75366 77367
L75394 77339
L75394 77395
" />
<path d="M76575 77395
L76575 76805
" />
<path d="M76631 77171
L76800 77395
" />
<path d="M76800 77002
L76575 77227
" />
<path d="M77053 77395
L77053 77002
" />
<path d="M77053 76805
L77025 76833
L77053 76861
L77081 76833
L77053 76805
L77053 76861
" />
<path d="M77588 77367
L77531 77395
L77419 77395
L77363 77367
L77334 77339
L77306 77283
L77306 77114
L77334 77058
L77363 77030
L77419 77002
L77531 77002
L77588 77030
" />
<path d="M78094 77395
L78094 77086
L78066 77030
L78009 77002
L77897 77002
L77841 77030
" />
<path d="M78094 77367
L78037 77395
L77897 77395
L77841 77367
L77813 77311
L77813 77255
L77841 77199
L77897 77171
L78037 77171
L78094 77142
" />
<path d="M78628 77395
L78628 76805
" />
<path d="M78628 77367
L78572 77395
L78459 77395
L78403 77367
L78375 77339
L78347 77283
L78347 77114
L78375 77058
L78403 77030
L78459 77002
L78572 77002
L78628 77030
" />
<path d="M79612 77002
L79612 77395
" />
<path d="M79472 76777
L79331 77199
L79697 77199
" />
<path d="M79922 77339
L79950 77367
L79922 77395
L79894 77367
L79922 77339
L79922 77395
" />
<path d="M80315 76805
L80372 76805
L80428 76833
L80456 76861
L80484 76917
L80512 77030
L80512 77171
L80484 77283
L80456 77339
L80428 77367
L80372 77395
L80315 77395
L80259 77367
L80231 77339
L80203 77283
L80175 77171
L80175 77030
L80203 76917
L80231 76861
L80259 76833
L80315 76805
" />
<path d="M80765 77339
L80793 77367
L80765 77395
L80737 77367
L80765 77339
L80765 77395
" />
<path d="M81018 76861
L81046 76833
L81103 76805
L81243 76805
L81300 76833
L81328 76861
L81356 76917
L81356 76974
L81328 77058
L80990 77395
L81356 77395
" />
<path d="M81609 77171
L82059 77171
" />
<path d="M81834 77395
L81834 76946
" />
<path d="M82593 77395
L82593 76805
" />
<path d="M82593 77367
L82537 77395
L82424 77395
L82368 77367
L82340 77339
L82312 77283
L82312 77114
L82340 77058
L82368 77030
L82424 77002
L82537 77002
L82593 77030
" />
<path d="M82790 77002
L83015 77002
" />
<path d="M82874 77395
L82874 76889
L82903 76833
L82959 76805
L83015 76805
" />
<path d="M83184 77367
L83240 77395
L83352 77395
L83409 77367
L83437 77311
L83437 77283
L83409 77227
L83352 77199
L83268 77199
L83212 77171
L83184 77114
L83184 77086
L83212 77030
L83268 77002
L83352 77002
L83409 77030
" />
<path d="M83943 77002
L83943 77480
L83915 77536
L83887 77564
L83831 77592
L83746 77592
L83690 77564
" />
<path d="M83943 77367
L83887 77395
L83774 77395
L83718 77367
L83690 77339
L83662 77283
L83662 77114
L83690 77058
L83718 77030
L83774 77002
L83887 77002
L83943 77030
" />
<path d="M84534 77395
L84196 77395
" />
<path d="M84365 77395
L84365 76805
L84309 76889
L84252 76946
L84196 76974
" />
<path d="M84787 77171
L85237 77171
" />
<path d="M85490 77367
L85546 77395
L85658 77395
L85715 77367
L85743 77311
L85743 77283
L85715 77227
L85658 77199
L85574 77199
L85518 77171
L85490 77114
L85490 77086
L85518 77030
L85574 77002
L85658 77002
L85715 77030
" />
<path d="M85912 77002
L86136 77002
" />
<path d="M85996 76805
L85996 77311
L86024 77367
L86080 77395
L86136 77395
" />
<path d="M86586 77395
L86586 77086
L86558 77030
L86502 77002
L86390 77002
L86333 77030
" />
<path d="M86586 77367
L86530 77395
L86390 77395
L86333 77367
L86305 77311
L86305 77255
L86333 77199
L86390 77171
L86530 77171
L86586 77142
" />
<path d="M86868 77395
L86868 76805
" />
<path d="M86868 77030
L86924 77002
L87036 77002
L87093 77030
L87121 77058
L87149 77114
L87149 77283
L87121 77339
L87093 77367
L87036 77395
L86924 77395
L86868 77367
" />
<path d="M87486 77395
L87430 77367
L87402 77311
L87402 76805
" />
<path d="M87936 77367
L87880 77395
L87768 77395
L87711 77367
L87683 77311
L87683 77086
L87711 77030
L87768 77002
L87880 77002
L87936 77030
L87964 77086
L87964 77142
L87683 77199
" />
</g>
<g style="fill:#000000; fill-opacity:0.0; 
stroke:#000000; stroke-width:39.3701; stroke-opacity:1; 
stroke-linecap:round; stroke-linejoin:round;">
</g>
<g style="fill:#000000; fill-opacity:0.0; 
stroke:#000000; stroke-width:59.0551; stroke-opacity:1; 
stroke-linecap:round; stroke-linejoin:round;">
<path d="M69685 75396
L112205 75396
" />
</g>
<g style="fill:#000000; fill-opacity:0.0; 
stroke:#000000; stroke-width:39.3701; stroke-opacity:1; 
stroke-linecap:round; stroke-linejoin:round;">
</g>
<g style="fill:#000000; fill-opacity:0.0; 
stroke:#000000; stroke-width:118.11; stroke-opacity:1; 
stroke-linecap:round; stroke-linejoin:round;">
<path d="M104022 76293
L103825 76012
" />
<path d="M103684 76293
L103684 75703
L103909 75703
L103965 75731
L103994 75759
L104022 75815
L104022 75899
L103994 75956
L103965 75984
L103909 76012
L103684 76012
" />
<path d="M104500 76265
L104444 76293
L104331 76293
L104275 76265
L104247 76209
L104247 75984
L104275 75928
L104331 75899
L104444 75899
L104500 75928
L104528 75984
L104528 76040
L104247 76096
" />
<path d="M104725 75899
L104865 76293
L105006 75899
" />
<path d="M105231 76237
L105259 76265
L105231 76293
L105203 76265
L105231 76237
L105231 76293
" />
<path d="M105231 75928
L105259 75956
L105231 75984
L105203 75956
L105231 75928
L105231 75984
" />
</g>
<g style="fill:#000000; fill-opacity:0.0; 
stroke:#000000; stroke-width:39.3701; stroke-opacity:1; 
stroke-linecap:round; stroke-linejoin:round;">
</g>
<g style="fill:#000000; fill-opacity:0.0; 
stroke:#000000; stroke-width:59.0551; stroke-opacity:1; 
stroke-linecap:round; stroke-linejoin:round;">
<path d="M70192 76265
L70276 76293
L70417 76293
L70473 76265
L70501 76237
L70529 76181
L70529 76124
L70501 76068
L70473 76040
L70417 76012
L70304 75984
L70248 75956
L70220 75928
L70192 75871
L70192 75815
L70220 75759
L70248 75731
L70304 75703
L70445 75703
L70529 75731
" />
<path d="M70782 76293
L70782 75899
" />
<path d="M70782 75703
L70754 75731
L70782 75759
L70810 75731
L70782 75703
L70782 75759
" />
<path d="M71007 75899
L71316 75899
L71007 76293
L71316 76293
" />
<path d="M71766 76265
L71710 76293
L71598 76293
L71541 76265
L71513 76209
L71513 75984
L71541 75928
L71598 75899
L71710 75899
L71766 75928
L71795 75984
L71795 76040
L71513 76096
" />
<path d="M72048 76237
L72076 76265
L72048 76293
L72019 76265
L72048 76237
L72048 76293
" />
<path d="M72048 75928
L72076 75956
L72048 75984
L72019 75956
L72048 75928
L72048 75984
" />
<path d="M72751 76124
L73032 76124
" />
<path d="M72694 76293
L72891 75703
L73088 76293
" />
<path d="M73538 75899
L73538 76293
" />
<path d="M73397 75674
L73257 76096
L73622 76096
" />
</g>
<g style="fill:#000000; fill-opacity:0.0; 
stroke:#000000; stroke-width:39.3701; stroke-opacity:1; 
stroke-linecap:round; stroke-linejoin:round;">
</g>
<g style="fill:#000000; fill-opacity:0.0; 
stroke:#000000; stroke-width:59.0551; stroke-opacity:1; 
stroke-linecap:round; stroke-linejoin:round;">
<path d="M103684 77395
L103684 76805
" />
<path d="M104219 77395
L104219 76805
" />
<path d="M104219 77367
L104162 77395
L104050 77395
L103994 77367
L103965 77339
L103937 77283
L103937 77114
L103965 77058
L103994 77030
L104050 77002
L104162 77002
L104219 77030
" />
<path d="M104500 77339
L104528 77367
L104500 77395
L104472 77367
L104500 77339
L104500 77395
" />
<path d="M104500 77030
L104528 77058
L104500 77086
L104472 77058
L104500 77030
L104500 77086
" />
<path d="M105540 77395
L105203 77395
" />
<path d="M105372 77395
L105372 76805
L105315 76889
L105259 76946
L105203 76974
" />
<path d="M106215 76777
L105709 77536
" />
<path d="M106721 77395
L106384 77395
" />
<path d="M106553 77395
L106553 76805
L106496 76889
L106440 76946
L106384 76974
" />
</g>
<g style="fill:#000000; fill-opacity:0.0; 
stroke:#000000; stroke-width:39.3701; stroke-opacity:1; 
stroke-linecap:round; stroke-linejoin:round;">
</g>
<g style="fill:#000000; fill-opacity:0.0; 
stroke:#000000; stroke-width:59.0551; stroke-opacity:1; 
stroke-linecap:round; stroke-linejoin:round;">
<path d="M69685 73821
L112205 73821
" />
</g>
<g style="fill:#000000; fill-opacity:0.0; 
stroke:#000000; stroke-width:39.3701; stroke-opacity:1; 
stroke-linecap:round; stroke-linejoin:round;">
</g>
<g style="fill:#000000; fill-opacity:0.0; 
stroke:#000000; stroke-width:157.48; stroke-opacity:1; 
stroke-linecap:round; stroke-linejoin:round;">
<path d="M70257 74099
L70707 74099
" />
<path d="M70384 74886
L70482 74099
" />
<path d="M70871 74886
L70937 74361
" />
<path d="M70970 74099
L70927 74136
L70960 74174
L71002 74136
L70970 74099
L70960 74174
" />
<path d="M71199 74361
L71499 74361
" />
<path d="M71345 74099
L71260 74774
L71288 74849
L71359 74886
L71434 74886
" />
<path d="M71809 74886
L71738 74849
L71710 74774
L71795 74099
" />
<path d="M72413 74849
L72334 74886
L72184 74886
L72113 74849
L72085 74774
L72123 74474
L72169 74399
L72249 74361
L72399 74361
L72469 74399
L72498 74474
L72488 74549
L72104 74624
" />
<path d="M72793 74811
L72826 74849
L72783 74886
L72751 74849
L72793 74811
L72783 74886
" />
<path d="M72844 74399
L72877 74436
L72835 74474
L72802 74436
L72844 74399
L72835 74474
" />
</g>
<g style="fill:#000000; fill-opacity:0.0; 
stroke:#000000; stroke-width:39.3701; stroke-opacity:1; 
stroke-linecap:round; stroke-linejoin:round;">
</g>
<g style="fill:#000000; fill-opacity:0.0; 
stroke:#000000; stroke-width:59.0551; stroke-opacity:1; 
stroke-linecap:round; stroke-linejoin:round;">
<path d="M70417 73070
L70220 73070
" />
<path d="M70220 73380
L70220 72789
L70501 72789
" />
<path d="M70726 73380
L70726 72986
" />
<path d="M70726 72789
L70698 72817
L70726 72845
L70754 72817
L70726 72789
L70726 72845
" />
<path d="M71091 73380
L71035 73352
L71007 73295
L71007 72789
" />
<path d="M71541 73352
L71485 73380
L71373 73380
L71316 73352
L71288 73295
L71288 73070
L71316 73014
L71373 72986
L71485 72986
L71541 73014
L71570 73070
L71570 73127
L71288 73183
" />
<path d="M71823 73323
L71851 73352
L71823 73380
L71795 73352
L71823 73323
L71823 73380
" />
<path d="M71823 73014
L71851 73042
L71823 73070
L71795 73042
L71823 73014
L71823 73070
" />
<path d="M72498 73380
L72807 72986
" />
<path d="M72498 72986
L72807 73380
" />
<path d="M73285 73352
L73229 73380
L73116 73380
L73060 73352
L73032 73323
L73004 73267
L73004 73099
L73032 73042
L73060 73014
L73116 72986
L73229 72986
L73285 73014
" />
<path d="M73538 72986
L73538 73577
" />
<path d="M73538 73014
L73594 72986
L73707 72986
L73763 73014
L73791 73042
L73819 73099
L73819 73267
L73791 73323
L73763 73352
L73707 73380
L73594 73380
L73538 73352
" />
<path d="M74157 73380
L74100 73352
L74072 73295
L74072 72789
" />
<path d="M74635 73380
L74635 72789
" />
<path d="M74635 73352
L74579 73380
L74466 73380
L74410 73352
L74382 73323
L74354 73267
L74354 73099
L74382 73042
L74410 73014
L74466 72986
L74579 72986
L74635 73014
" />
<path d="M74775 73436
L75225 73436
" />
<path d="M75619 73380
L75619 72789
" />
<path d="M75619 73352
L75563 73380
L75450 73380
L75394 73352
L75366 73323
L75338 73267
L75338 73099
L75366 73042
L75394 73014
L75450 72986
L75563 72986
L75619 73014
" />
<path d="M76125 73352
L76069 73380
L75956 73380
L75900 73352
L75872 73295
L75872 73070
L75900 73014
L75956 72986
L76069 72986
L76125 73014
L76153 73070
L76153 73127
L75872 73183
" />
<path d="M76406 73380
L76406 72986
" />
<path d="M76406 73042
L76435 73014
L76491 72986
L76575 72986
L76631 73014
L76660 73070
L76660 73380
" />
<path d="M76660 73070
L76688 73014
L76744 72986
L76828 72986
L76885 73014
L76913 73070
L76913 73380
" />
<path d="M77278 73380
L77222 73352
L77194 73323
L77166 73267
L77166 73099
L77194 73042
L77222 73014
L77278 72986
L77363 72986
L77419 73014
L77447 73042
L77475 73099
L77475 73267
L77447 73323
L77419 73352
L77363 73380
L77278 73380
" />
<path d="M77588 73436
L78037 73436
" />
<path d="M78178 73380
L78178 72789
" />
<path d="M78178 73014
L78234 72986
L78347 72986
L78403 73014
L78431 73042
L78459 73099
L78459 73267
L78431 73323
L78403 73352
L78347 73380
L78234 73380
L78178 73352
" />
<path d="M78797 73380
L78741 73352
L78712 73323
L78684 73267
L78684 73099
L78712 73042
L78741 73014
L78797 72986
L78881 72986
L78937 73014
L78965 73042
L78994 73099
L78994 73267
L78965 73323
L78937 73352
L78881 73380
L78797 73380
" />
<path d="M79500 73380
L79500 73070
L79472 73014
L79415 72986
L79303 72986
L79247 73014
" />
<path d="M79500 73352
L79444 73380
L79303 73380
L79247 73352
L79219 73295
L79219 73239
L79247 73183
L79303 73155
L79444 73155
L79500 73127
" />
<path d="M79781 73380
L79781 72986
" />
<path d="M79781 73099
L79809 73042
L79837 73014
L79894 72986
L79950 72986
" />
<path d="M80400 73380
L80400 72789
" />
<path d="M80400 73352
L80343 73380
L80231 73380
L80175 73352
L80147 73323
L80118 73267
L80118 73099
L80147 73042
L80175 73014
L80231 72986
L80343 72986
L80400 73014
" />
<path d="M80681 73323
L80709 73352
L80681 73380
L80653 73352
L80681 73323
L80681 73380
" />
<path d="M80962 73380
L80962 72789
" />
<path d="M81018 73155
L81187 73380
" />
<path d="M81187 72986
L80962 73211
" />
<path d="M81440 73380
L81440 72986
" />
<path d="M81440 72789
L81412 72817
L81440 72845
L81468 72817
L81440 72789
L81440 72845
" />
<path d="M81974 73352
L81918 73380
L81806 73380
L81750 73352
L81721 73323
L81693 73267
L81693 73099
L81721 73042
L81750 73014
L81806 72986
L81918 72986
L81974 73014
" />
<path d="M82481 73380
L82481 73070
L82453 73014
L82396 72986
L82284 72986
L82228 73014
" />
<path d="M82481 73352
L82424 73380
L82284 73380
L82228 73352
L82199 73295
L82199 73239
L82228 73183
L82284 73155
L82424 73155
L82481 73127
" />
<path d="M83015 73380
L83015 72789
" />
<path d="M83015 73352
L82959 73380
L82846 73380
L82790 73352
L82762 73323
L82734 73267
L82734 73099
L82762 73042
L82790 73014
L82846 72986
L82959 72986
L83015 73014
" />
<path d="M83156 73436
L83606 73436
" />
<path d="M83746 72986
L83746 73577
" />
<path d="M83746 73014
L83802 72986
L83915 72986
L83971 73014
L83999 73042
L84027 73099
L84027 73267
L83999 73323
L83971 73352
L83915 73380
L83802 73380
L83746 73352
" />
<path d="M84534 73352
L84477 73380
L84365 73380
L84309 73352
L84280 73323
L84252 73267
L84252 73099
L84280 73042
L84309 73014
L84365 72986
L84477 72986
L84534 73014
" />
<path d="M84787 73380
L84787 72789
" />
<path d="M84787 73014
L84843 72986
L84955 72986
L85012 73014
L85040 73042
L85068 73099
L85068 73267
L85040 73323
L85012 73352
L84955 73380
L84843 73380
L84787 73352
" />
</g>
<g style="fill:#000000; fill-opacity:0.0; 
stroke:#000000; stroke-width:39.3701; stroke-opacity:1; 
stroke-linecap:round; stroke-linejoin:round;">
</g>
<g style="fill:#000000; fill-opacity:0.0; 
stroke:#000000; stroke-width:59.0551; stroke-opacity:1; 
stroke-linecap:round; stroke-linejoin:round;">
<path d="M69685 71459
L112205 71459
" />
</g>
<g style="fill:#000000; fill-opacity:0.0; 
stroke:#000000; stroke-width:39.3701; stroke-opacity:1; 
stroke-linecap:round; stroke-linejoin:round;">
</g>
<g style="fill:#000000; fill-opacity:0.0; 
stroke:#000000; stroke-width:59.0551; stroke-opacity:1; 
stroke-linecap:round; stroke-linejoin:round;">
<path d="M70192 72289
L70276 72317
L70417 72317
L70473 72289
L70501 72260
L70529 72204
L70529 72148
L70501 72092
L70473 72064
L70417 72036
L70304 72007
L70248 71979
L70220 71951
L70192 71895
L70192 71839
L70220 71782
L70248 71754
L70304 71726
L70445 71726
L70529 71754
" />
<path d="M70782 72317
L70782 71726
" />
<path d="M71035 72317
L71035 72007
L71007 71951
L70951 71923
L70867 71923
L70810 71951
L70782 71979
" />
<path d="M71541 72289
L71485 72317
L71373 72317
L71316 72289
L71288 72232
L71288 72007
L71316 71951
L71373 71923
L71485 71923
L71541 71951
L71570 72007
L71570 72064
L71288 72120
" />
<path d="M72048 72289
L71991 72317
L71879 72317
L71823 72289
L71795 72232
L71795 72007
L71823 71951
L71879 71923
L71991 71923
L72048 71951
L72076 72007
L72076 72064
L71795 72120
" />
<path d="M72244 71923
L72469 71923
" />
<path d="M72329 71726
L72329 72232
L72357 72289
L72413 72317
L72469 72317
" />
<path d="M72666 72260
L72694 72289
L72666 72317
L72638 72289
L72666 72260
L72666 72317
" />
<path d="M72666 71951
L72694 71979
L72666 72007
L72638 71979
L72666 71951
L72666 72007
" />
</g>
<g style="fill:#000000; fill-opacity:0.0; 
stroke:#000000; stroke-width:39.3701; stroke-opacity:1; 
stroke-linecap:round; stroke-linejoin:round;">
</g>
<g style="fill:#000000; fill-opacity:0.0; 
stroke:#000000; stroke-width:59.0551; stroke-opacity:1; 
stroke-linecap:round; stroke-linejoin:round;">
<path d="M77559 75396
L77559 76577
" />
</g>
<g style="fill:#000000; fill-opacity:0.0; 
stroke:#000000; stroke-width:39.3701; stroke-opacity:1; 
stroke-linecap:round; stroke-linejoin:round;">
</g>
<g style="fill:#000000; fill-opacity:0.0; 
stroke:#000000; stroke-width:59.0551; stroke-opacity:1; 
stroke-linecap:round; stroke-linejoin:round;">
<path d="M102756 75396
L102756 77955
" />
</g>
<g style="fill:#C2C200; fill-opacity:0.0; 
stroke:#C2C200; stroke-width:59.0551; stroke-opacity:1; 
stroke-linecap:round; stroke-linejoin:round;">
<path d="M29000 36500
L54750 36500
" />
<path d="M54750 22500
L29000 22500
" />
<path d="M54750 36500
L54750 22500
" />
<path d="M29000 22500
L29000 36500
" />
<path d="M36684 31928
L36553 31740
" />
<path d="M36459 31928
L36459 31534
L36609 31534
L36646 31553
L36665 31571
L36684 31609
L36684 31665
L36665 31703
L36646 31721
L36609 31740
L36459 31740
" />
<path d="M37059 31928
L36834 31928
" />
<path d="M36946 31928
L36946 31534
L36909 31590
L36871 31628
L36834 31646
" />
<path d="M44959 25678
L44959 25284
L45109 25284
L45146 25303
L45165 25321
L45184 25359
L45184 25415
L45165 25453
L45146 25471
L45109 25490
L44959 25490
" />
<path d="M45315 25284
L45559 25284
L45428 25434
L45484 25434
L45521 25453
L45540 25471
L45559 25509
L45559 25603
L45540 25640
L45521 25659
L45484 25678
L45371 25678
L45334 25659
L45315 25640
" />
<path d="M41950 27034
L41950 27353
L41968 27390
L41987 27409
L42025 27428
L42100 27428
L42137 27409
L42156 27390
L42175 27353
L42175 27034
" />
<path d="M42343 27071
L42362 27053
L42399 27034
L42493 27034
L42531 27053
L42549 27071
L42568 27109
L42568 27146
L42549 27203
L42324 27428
L42568 27428
" />
<path d="M35034 25140
L35015 25159
L34959 25178
L34921 25178
L34865 25159
L34828 25121
L34809 25084
L34790 25009
L34790 24953
L34809 24878
L34828 24840
L34865 24803
L34921 24784
L34959 24784
L35015 24803
L35034 24821
" />
<path d="M35409 25178
L35184 25178
" />
<path d="M35296 25178
L35296 24784
L35259 24840
L35221 24878
L35184 24896
" />
<path d="M32634 25140
L32615 25159
L32559 25178
L32521 25178
L32465 25159
L32428 25121
L32409 25084
L32390 25009
L32390 24953
L32409 24878
L32428 24840
L32465 24803
L32521 24784
L32559 24784
L32615 24803
L32634 24821
" />
<path d="M32784 24821
L32803 24803
L32840 24784
L32934 24784
L32971 24803
L32990 24821
L33009 24859
L33009 24896
L32990 24953
L32765 25178
L33009 25178
" />
<path d="M38184 27890
L38165 27909
L38109 27928
L38071 27928
L38015 27909
L37978 27871
L37959 27834
L37940 27759
L37940 27703
L37959 27628
L37978 27590
L38015 27553
L38071 27534
L38109 27534
L38165 27553
L38184 27571
" />
<path d="M38315 27534
L38559 27534
L38428 27684
L38484 27684
L38521 27703
L38540 27721
L38559 27759
L38559 27853
L38540 27890
L38521 27909
L38484 27928
L38371 27928
L38334 27909
L38315 27890
" />
<path d="M32900 28584
L32900 28903
L32918 28940
L32937 28959
L32975 28978
L33050 28978
L33087 28959
L33106 28940
L33125 28903
L33125 28584
" />
<path d="M33518 28978
L33293 28978
" />
<path d="M33406 28978
L33406 28584
L33368 28640
L33331 28678
L33293 28696
" />
<path d="M34434 31928
L34303 31740
" />
<path d="M34209 31928
L34209 31534
L34359 31534
L34396 31553
L34415 31571
L34434 31609
L34434 31665
L34415 31703
L34396 31721
L34359 31740
L34209 31740
" />
<path d="M34584 31571
L34603 31553
L34640 31534
L34734 31534
L34771 31553
L34790 31571
L34809 31609
L34809 31646
L34790 31703
L34565 31928
L34809 31928
" />
<path d="M40434 32678
L40303 32490
" />
<path d="M40209 32678
L40209 32284
L40359 32284
L40396 32303
L40415 32321
L40434 32359
L40434 32415
L40415 32453
L40396 32471
L40359 32490
L40209 32490
" />
<path d="M40565 32284
L40809 32284
L40678 32434
L40734 32434
L40771 32453
L40790 32471
L40809 32509
L40809 32603
L40790 32640
L40771 32659
L40734 32678
L40621 32678
L40584 32659
L40565 32640
" />
<path d="M38934 26678
L38803 26490
" />
<path d="M38709 26678
L38709 26284
L38859 26284
L38896 26303
L38915 26321
L38934 26359
L38934 26415
L38915 26453
L38896 26471
L38859 26490
L38709 26490
" />
<path d="M39271 26415
L39271 26678
" />
<path d="M39178 26265
L39084 26546
L39328 26546
" />
<path d="M49684 32178
L49553 31990
" />
<path d="M49459 32178
L49459 31784
L49609 31784
L49646 31803
L49665 31821
L49684 31859
L49684 31915
L49665 31953
L49646 31971
L49609 31990
L49459 31990
" />
<path d="M50040 31784
L49853 31784
L49834 31971
L49853 31953
L49890 31934
L49984 31934
L50021 31953
L50040 31971
L50059 32009
L50059 32103
L50040 32140
L50021 32159
L49984 32178
L49890 32178
L49853 32159
L49834 32140
" />
<path d="M47734 26278
L47603 26090
" />
<path d="M47509 26278
L47509 25884
L47659 25884
L47696 25903
L47715 25921
L47734 25959
L47734 26015
L47715 26053
L47696 26071
L47659 26090
L47509 26090
" />
<path d="M48071 25884
L47996 25884
L47959 25903
L47940 25921
L47903 25978
L47884 26053
L47884 26203
L47903 26240
L47921 26259
L47959 26278
L48034 26278
L48071 26259
L48090 26240
L48109 26203
L48109 26109
L48090 26071
L48071 26053
L48034 26034
L47959 26034
L47921 26053
L47903 26071
L47884 26109
" />
<path d="M29509 32128
L29509 31734
L29659 31734
L29696 31753
L29715 31771
L29734 31809
L29734 31865
L29715 31903
L29696 31921
L29659 31940
L29509 31940
" />
<path d="M30071 31734
L29996 31734
L29959 31753
L29940 31771
L29903 31828
L29884 31903
L29884 32053
L29903 32090
L29921 32109
L29959 32128
L30034 32128
L30071 32109
L30090 32090
L30109 32053
L30109 31959
L30090 31921
L30071 31903
L30034 31884
L29959 31884
L29921 31903
L29903 31921
L29884 31959
" />
<path d="M52709 33678
L52709 33284
L52859 33284
L52896 33303
L52915 33321
L52934 33359
L52934 33415
L52915 33453
L52896 33471
L52859 33490
L52709 33490
" />
<path d="M53290 33284
L53103 33284
L53084 33471
L53103 33453
L53140 33434
L53234 33434
L53271 33453
L53290 33471
L53309 33509
L53309 33603
L53290 33640
L53271 33659
L53234 33678
L53140 33678
L53103 33659
L53084 33640
" />
<path d="M38459 25678
L38459 25284
L38609 25284
L38646 25303
L38665 25321
L38684 25359
L38684 25415
L38665 25453
L38646 25471
L38609 25490
L38459 25490
" />
<path d="M39059 25678
L38834 25678
" />
<path d="M38946 25678
L38946 25284
L38909 25340
L38871 25378
L38834 25396
" />
<path d="M43709 33928
L43709 33534
L43859 33534
L43896 33553
L43915 33571
L43934 33609
L43934 33665
L43915 33703
L43896 33721
L43859 33740
L43709 33740
" />
<path d="M44084 33571
L44103 33553
L44140 33534
L44234 33534
L44271 33553
L44290 33571
L44309 33609
L44309 33646
L44290 33703
L44065 33928
L44309 33928
" />
<path d="M50009 33678
L50009 33284
L50159 33284
L50196 33303
L50215 33321
L50234 33359
L50234 33415
L50215 33453
L50196 33471
L50159 33490
L50009 33490
" />
<path d="M50571 33415
L50571 33678
" />
<path d="M50478 33265
L50384 33546
L50628 33546
" />
<path d="M30109 24178
L30109 23784
L30203 23784
L30259 23803
L30296 23840
L30315 23878
L30334 23953
L30334 24009
L30315 24084
L30296 24121
L30259 24159
L30203 24178
L30109 24178
" />
<path d="M30709 24178
L30484 24178
" />
<path d="M30596 24178
L30596 23784
L30559 23840
L30521 23878
L30484 23896
" />
</g>
<g style="fill:#008484; fill-opacity:0.0; 
stroke:#008484; stroke-width:59.0551; stroke-opacity:1; 
stroke-linecap:round; stroke-linejoin:round;">
<path d="M31396 23278
L31396 22884
" />
<path d="M31621 23278
L31453 23053
" />
<path d="M31621 22884
L31396 23109
" />
<path d="M31406 28065
L31593 28065
" />
<path d="M31368 28178
L31500 27784
L31631 28178
" />
</g>
<g style="fill:#C2C200; fill-opacity:0.0; 
stroke:#C2C200; stroke-width:59.0551; stroke-opacity:1; 
stroke-linecap:round; stroke-linejoin:round;">
<path d="M35309 34978
L35309 34584
L35403 34584
L35459 34603
L35496 34640
L35515 34678
L35534 34753
L35534 34809
L35515 34884
L35496 34921
L35459 34959
L35403 34978
L35309 34978
" />
<path d="M35684 34621
L35703 34603
L35740 34584
L35834 34584
L35871 34603
L35890 34621
L35909 34659
L35909 34696
L35890 34753
L35665 34978
L35909 34978
" />
</g>
<g style="fill:#008484; fill-opacity:0.0; 
stroke:#008484; stroke-width:59.0551; stroke-opacity:1; 
stroke-linecap:round; stroke-linejoin:round;">
<path d="M34492 34942
L34492 34548
" />
<path d="M34717 34942
L34549 34717
" />
<path d="M34717 34548
L34492 34773
" />
<path d="M36431 34849
L36618 34849
" />
<path d="M36393 34962
L36525 34568
L36656 34962
" />
<path d="M36432 32055
L36904 32055
" />
<path d="M36904 32744
L36432 32744
" />
<path d="M45500 23000
L50500 23000
" />
<path d="M50500 23000
L50500 25000
" />
<path d="M50500 25000
L46500 25000
" />
<path d="M45500 23000
L45500 24000
" />
<path d="M45389 24500
L45389 25110
" />
<path d="M45500 24000
L46500 24000
" />
<path d="M46500 24000
L46500 25000
" />
<path d="M45389 25110
L46000 25110
" />
<path d="M46271 31468
L42728 31468
" />
<path d="M42531 31271
L42531 27728
" />
<path d="M42531 27728
L42728 27531
" />
<path d="M42728 27531
L46271 27531
" />
<path d="M46271 27531
L46468 27728
" />
<path d="M46468 27728
L46468 31271
" />
<path d="M46468 31271
L46271 31468
" />
<path d="M46271 31468
L42728 31468
" />
<path d="M42728 31468
L42531 31271
" />
<circle cx="42846.5" cy="31153.5" r="111.356" /> 
<path d="M35800 27350
L35800 27050
" />
<path d="M35950 27200
L35650 27200
" />
<path d="M34900 27300
L34900 25800
" />
<path d="M36400 27600
L35200 27600
" />
<path d="M34900 27300
L35200 27600
" />
<path d="M36700 27300
L36700 25800
" />
<path d="M36700 27300
L36400 27600
" />
<path d="M35750 25900
L35850 25900
" />
<path d="M36050 25950
L35550 25950
" />
<path d="M35450 26000
L36150 26000
" />
<path d="M35350 26050
L36250 26050
" />
<path d="M36300 26100
L35300 26100
" />
<path d="M35250 26150
L36350 26150
" />
<path d="M36400 26200
L35200 26200
" />
<path d="M36450 26250
L35150 26250
" />
<path d="M36700 25800
L34900 25800
" />
<circle cx="35800" cy="26700" r="800" /> 
<path d="M33400 27350
L33400 27050
" />
<path d="M33550 27200
L33250 27200
" />
<path d="M32500 27300
L32500 25800
" />
<path d="M34000 27600
L32800 27600
" />
<path d="M32500 27300
L32800 27600
" />
<path d="M34300 27300
L34300 25800
" />
<path d="M34300 27300
L34000 27600
" />
<path d="M33350 25900
L33450 25900
" />
<path d="M33650 25950
L33150 25950
" />
<path d="M33050 26000
L33750 26000
" />
<path d="M32950 26050
L33850 26050
" />
<path d="M33900 26100
L32900 26100
" />
<path d="M32850 26150
L33950 26150
" />
<path d="M34000 26200
L32800 26200
" />
<path d="M34050 26250
L32750 26250
" />
<path d="M34300 25800
L32500 25800
" />
<circle cx="33400" cy="26700" r="800" /> 
<path d="M38600 30250
L38600 29950
" />
<path d="M38750 30100
L38450 30100
" />
<path d="M37700 30200
L37700 28700
" />
<path d="M39200 30500
L38000 30500
" />
<path d="M37700 30200
L38000 30500
" />
<path d="M39500 30200
L39500 28700
" />
<path d="M39500 30200
L39200 30500
" />
<path d="M38550 28800
L38650 28800
" />
<path d="M38850 28850
L38350 28850
" />
<path d="M38250 28900
L38950 28900
" />
<path d="M38150 28950
L39050 28950
" />
<path d="M39100 29000
L38100 29000
" />
<path d="M38050 29050
L39150 29050
" />
<path d="M39200 29100
L38000 29100
" />
<path d="M39250 29150
L37950 29150
" />
<path d="M39500 28700
L37700 28700
" />
<circle cx="38600" cy="29600" r="800" /> 
<path d="M35400 31700
L36600 31700
" />
<path d="M36600 31700
L36600 28900
" />
<path d="M36600 28900
L35400 28900
" />
<path d="M34200 31700
L33900 31700
" />
<path d="M33900 31700
L33000 31100
" />
<path d="M33000 31100
L33000 29500
" />
<path d="M33000 29500
L33900 28900
" />
<path d="M33900 28900
L34200 28900
" />
<path d="M34163 32055
L34636 32055
" />
<path d="M34636 32744
L34163 32744
" />
<path d="M41736 32244
L41263 32244
" />
<path d="M41263 31555
L41736 31555
" />
<path d="M40344 26263
L40344 26736
" />
<path d="M39655 26736
L39655 26263
" />
<path d="M48655 33004
L48655 32532
" />
<path d="M49344 32532
L49344 33004
" />
<path d="M47344 25963
L47344 26436
" />
<path d="M46655 26436
L46655 25963
" />
<path d="M29497 28037
L29497 31462
" />
<path d="M32018 28037
L32018 31462
" />
<path d="M32018 31462
L29497 31462
" />
<path d="M29981 31462
L29981 28037
" />
<path d="M29497 28037
L32018 28037
" />
<path d="M52000 26000
L52000 33000
" />
<path d="M54000 32000
L54000 26000
" />
<path d="M52000 26000
L54000 26000
" />
<path d="M52000 33000
L53000 33000
" />
<path d="M53500 33110
L54110 33110
" />
<path d="M53000 33000
L53000 32000
" />
<path d="M53000 32000
L54000 32000
" />
<path d="M54110 33110
L54110 32500
" />
<path d="M38500 23000
L43500 23000
" />
<path d="M43500 23000
L43500 25000
" />
<path d="M43500 25000
L39500 25000
" />
<path d="M38500 23000
L38500 24000
" />
<path d="M38389 24500
L38389 25110
" />
<path d="M38500 24000
L39500 24000
" />
<path d="M39500 24000
L39500 25000
" />
<path d="M38389 25110
L39000 25110
" />
<path d="M43500 36000
L38500 36000
" />
<path d="M38500 36000
L38500 34000
" />
<path d="M38500 34000
L42500 34000
" />
<path d="M43500 36000
L43500 35000
" />
<path d="M43610 34500
L43610 33889
" />
<path d="M43500 35000
L42500 35000
" />
<path d="M42500 35000
L42500 34000
" />
<path d="M43610 33889
L43000 33889
" />
<path d="M50500 36000
L45500 36000
" />
<path d="M45500 36000
L45500 34000
" />
<path d="M45500 34000
L49500 34000
" />
<path d="M50500 36000
L50500 35000
" />
<path d="M50610 34500
L50610 33889
" />
<path d="M50500 35000
L49500 35000
" />
<path d="M49500 35000
L49500 34000
" />
<path d="M50610 33889
L50000 33889
" />
<path d="M31500 25657
L31500 25933
" />
<path d="M31500 25283
L31500 25067
" />
<path d="M31500 25283
L31185 25283
" />
<path d="M31500 25283
L31815 25283
" />
<path d="M31500 25283
L31815 25657
" />
<path d="M31815 25657
L31185 25657
" />
<path d="M31185 25657
L31500 25283
" />
<path d="M31992 25067
L31992 25028
" />
<path d="M31008 25067
L31008 25028
" />
<path d="M31992 25972
L31992 25047
" />
<path d="M31008 25972
L31008 25087
" />
<path d="M35757 33800
L36033 33800
" />
<path d="M35383 33800
L35167 33800
" />
<path d="M35383 33800
L35383 34115
" />
<path d="M35383 33800
L35383 33485
" />
<path d="M35383 33800
L35757 33485
" />
<path d="M35757 33485
L35757 34115
" />
<path d="M35757 34115
L35383 33800
" />
<path d="M35167 33308
L35128 33308
" />
<path d="M35167 34292
L35128 34292
" />
<path d="M36072 33308
L35147 33308
" />
<path d="M36072 34292
L35187 34292
" />
</g>
<g style="fill:#840000; fill-opacity:0.0; 
stroke:#840000; stroke-width:59.0551; stroke-opacity:1; 
stroke-linecap:round; stroke-linejoin:round;">
</g>
<g style="fill:#840000; fill-opacity:0.0; 
stroke:#840000; stroke-width:0; stroke-opacity:1; 
stroke-linecap:round; stroke-linejoin:round;">
</g>
<g style="fill:#840000; fill-opacity:1.0; 
stroke:#840000; stroke-width:0; stroke-opacity:1; 
stroke-linecap:round; stroke-linejoin:round;">
<polyline style="fill-rule:evenodd;"
points="46340,24840
45660,24840
45660,24160
46340,24160
46340,24840
" /> 
</g>
<g style="fill:#840000; fill-opacity:1.0; 
stroke:#840000; stroke-width:680; stroke-opacity:1; 
stroke-linecap:round; stroke-linejoin:round;">
</g>
<g style="fill:#840000; fill-opacity:0.0; 
stroke:#840000; stroke-width:680; stroke-opacity:1; 
stroke-linecap:round; stroke-linejoin:round;">
<path d="M46000 23500
L46000 23500
" />
<path d="M47000 24500
L47000 24500
" />
<path d="M47000 23500
L47000 23500
" />
<path d="M48000 24500
L48000 24500
" />
<path d="M48000 23500
L48000 23500
" />
<path d="M49000 24500
L49000 24500
" />
<path d="M49000 23500
L49000 23500
" />
<path d="M50000 24500
L50000 24500
" />
<path d="M50000 23500
L50000 23500
" />
</g>
<g style="fill:#840000; fill-opacity:0.0; 
stroke:#840000; stroke-width:374.016; stroke-opacity:1; 
stroke-linecap:round; stroke-linejoin:round;">
<path d="M31615 28706
L31615 28824
" />
<path d="M31615 30674
L31615 30792
" />
</g>
<g style="fill:#840000; fill-opacity:0.0; 
stroke:#840000; stroke-width:393.701; stroke-opacity:1; 
stroke-linecap:round; stroke-linejoin:round;">
<path d="M30443 28371
L30660 28371
" />
<path d="M30443 31127
L30660 31127
" />
</g>
<g style="fill:#840000; fill-opacity:0.0; 
stroke:#840000; stroke-width:0; stroke-opacity:1; 
stroke-linecap:round; stroke-linejoin:round;">
</g>
<g style="fill:#840000; fill-opacity:1.0; 
stroke:#840000; stroke-width:0; stroke-opacity:1; 
stroke-linecap:round; stroke-linejoin:round;">
<polyline style="fill-rule:evenodd;"
points="53840,32160
53840,32840
53160,32840
53160,32160
53840,32160
" /> 
</g>
<g style="fill:#840000; fill-opacity:1.0; 
stroke:#840000; stroke-width:680; stroke-opacity:1; 
stroke-linecap:round; stroke-linejoin:round;">
</g>
<g style="fill:#840000; fill-opacity:0.0; 
stroke:#840000; stroke-width:680; stroke-opacity:1; 
stroke-linecap:round; stroke-linejoin:round;">
<path d="M52500 32500
L52500 32500
" />
<path d="M53500 31500
L53500 31500
" />
<path d="M52500 31500
L52500 31500
" />
<path d="M53500 30500
L53500 30500
" />
<path d="M52500 30500
L52500 30500
" />
<path d="M53500 29500
L53500 29500
" />
<path d="M52500 29500
L52500 29500
" />
<path d="M53500 28500
L53500 28500
" />
<path d="M52500 28500
L52500 28500
" />
<path d="M53500 27500
L53500 27500
" />
<path d="M52500 27500
L52500 27500
" />
<path d="M53500 26500
L53500 26500
" />
<path d="M52500 26500
L52500 26500
" />
</g>
<g style="fill:#840000; fill-opacity:0.0; 
stroke:#840000; stroke-width:0; stroke-opacity:1; 
stroke-linecap:round; stroke-linejoin:round;">
</g>
<g style="fill:#840000; fill-opacity:1.0; 
stroke:#840000; stroke-width:0; stroke-opacity:1; 
stroke-linecap:round; stroke-linejoin:round;">
<polyline style="fill-rule:evenodd;"
points="39340,24840
38660,24840
38660,24160
39340,24160
39340,24840
" /> 
</g>
<g style="fill:#840000; fill-opacity:1.0; 
stroke:#840000; stroke-width:680; stroke-opacity:1; 
stroke-linecap:round; stroke-linejoin:round;">
</g>
<g style="fill:#840000; fill-opacity:0.0; 
stroke:#840000; stroke-width:680; stroke-opacity:1; 
stroke-linecap:round; stroke-linejoin:round;">
<path d="M39000 23500
L39000 23500
" />
<path d="M40000 24500
L40000 24500
" />
<path d="M40000 23500
L40000 23500
" />
<path d="M41000 24500
L41000 24500
" />
<path d="M41000 23500
L41000 23500
" />
<path d="M42000 24500
L42000 24500
" />
<path d="M42000 23500
L42000 23500
" />
<path d="M43000 24500
L43000 24500
" />
<path d="M43000 23500
L43000 23500
" />
</g>
<g style="fill:#840000; fill-opacity:0.0; 
stroke:#840000; stroke-width:0; stroke-opacity:1; 
stroke-linecap:round; stroke-linejoin:round;">
</g>
<g style="fill:#840000; fill-opacity:1.0; 
stroke:#840000; stroke-width:0; stroke-opacity:1; 
stroke-linecap:round; stroke-linejoin:round;">
<polyline style="fill-rule:evenodd;"
points="42660,34160
43340,34160
43340,34840
42660,34840
42660,34160
" /> 
</g>
<g style="fill:#840000; fill-opacity:1.0; 
stroke:#840000; stroke-width:680; stroke-opacity:1; 
stroke-linecap:round; stroke-linejoin:round;">
</g>
<g style="fill:#840000; fill-opacity:0.0; 
stroke:#840000; stroke-width:680; stroke-opacity:1; 
stroke-linecap:round; stroke-linejoin:round;">
<path d="M43000 35500
L43000 35500
" />
<path d="M42000 34500
L42000 34500
" />
<path d="M42000 35500
L42000 35500
" />
<path d="M41000 34500
L41000 34500
" />
<path d="M41000 35500
L41000 35500
" />
<path d="M40000 34500
L40000 34500
" />
<path d="M40000 35500
L40000 35500
" />
<path d="M39000 34500
L39000 34500
" />
<path d="M39000 35500
L39000 35500
" />
</g>
<g style="fill:#840000; fill-opacity:0.0; 
stroke:#840000; stroke-width:0; stroke-opacity:1; 
stroke-linecap:round; stroke-linejoin:round;">
</g>
<g style="fill:#840000; fill-opacity:1.0; 
stroke:#840000; stroke-width:0; stroke-opacity:1; 
stroke-linecap:round; stroke-linejoin:round;">
<polyline style="fill-rule:evenodd;"
points="49660,34160
50340,34160
50340,34840
49660,34840
49660,34160
" /> 
</g>
<g style="fill:#840000; fill-opacity:1.0; 
stroke:#840000; stroke-width:680; stroke-opacity:1; 
stroke-linecap:round; stroke-linejoin:round;">
</g>
<g style="fill:#840000; fill-opacity:0.0; 
stroke:#840000; stroke-width:680; stroke-opacity:1; 
stroke-linecap:round; stroke-linejoin:round;">
<path d="M50000 35500
L50000 35500
" />
<path d="M49000 34500
L49000 34500
" />
<path d="M49000 35500
L49000 35500
" />
<path d="M48000 34500
L48000 34500
" />
<path d="M48000 35500
L48000 35500
" />
<path d="M47000 34500
L47000 34500
" />
<path d="M47000 35500
L47000 35500
" />
<path d="M46000 34500
L46000 34500
" />
<path d="M46000 35500
L46000 35500
" />
</g> 
</svg>
